<mxfile host="app.diagrams.net" modified="2021-04-05T22:20:54.999Z" agent="5.0 (X11)" etag="BdWlG3WLy7BJ26D2AyzX" version="14.5.7" type="github">
  <diagram id="QdDsAQWEYsWGxPABz-Qg" name="Page-1">
    <mxGraphModel dx="1824" dy="887" grid="1" gridSize="10" guides="1" tooltips="1" connect="1" arrows="1" fold="1" page="1" pageScale="1" pageWidth="850" pageHeight="1100" math="0" shadow="0">
      <root>
        <mxCell id="0" />
        <mxCell id="1" parent="0" />
        <mxCell id="rYdnkz3b3mRgHNBn6CWZ-1" value="" style="rounded=1;whiteSpace=wrap;html=1;" vertex="1" parent="1">
          <mxGeometry x="160" y="80" width="380" height="680" as="geometry" />
        </mxCell>
        <mxCell id="rYdnkz3b3mRgHNBn6CWZ-2" value="" style="rounded=0;whiteSpace=wrap;html=1;" vertex="1" parent="1">
          <mxGeometry x="210" y="80" width="270" height="40" as="geometry" />
        </mxCell>
        <mxCell id="rYdnkz3b3mRgHNBn6CWZ-3" value="" style="whiteSpace=wrap;html=1;aspect=fixed;" vertex="1" parent="1">
          <mxGeometry x="160" y="330" width="380" height="380" as="geometry" />
        </mxCell>
      </root>
    </mxGraphModel>
  </diagram>
</mxfile>
